<svg xmlns="http://www.w3.org/2000/svg" xmlns:xlink="http://www.w3.org/1999/xlink" width="500" zoomAndPan="magnify" viewBox="0 0 375 374.999991" height="500" preserveAspectRatio="xMidYMid meet" version="1.0"><path fill="#ffffff" d="M 177.214844 316.613281 C 177.335938 316.765625 177.53125 316.820312 177.660156 316.960938 C 178.574219 317.90625 179.601562 318.703125 180.753906 319.34375 C 181.167969 319.660156 181.597656 319.949219 182.050781 320.214844 C 182.902344 320.613281 183.789062 320.917969 184.707031 321.121094 C 185.628906 321.324219 186.558594 321.429688 187.5 321.429688 C 188.441406 321.429688 189.371094 321.324219 190.292969 321.121094 C 191.210938 320.917969 192.097656 320.613281 192.949219 320.214844 C 193.402344 319.949219 193.832031 319.660156 194.246094 319.34375 C 195.398438 318.703125 196.425781 317.90625 197.339844 316.960938 C 197.472656 316.820312 197.664062 316.765625 197.785156 316.613281 L 264.75 236.257812 C 265.316406 235.582031 265.808594 234.859375 266.230469 234.085938 C 266.652344 233.3125 266.992188 232.507812 267.257812 231.667969 C 267.519531 230.828125 267.695312 229.96875 267.789062 229.09375 C 267.882812 228.21875 267.890625 227.34375 267.8125 226.46875 C 267.734375 225.589844 267.570312 224.730469 267.320312 223.886719 C 267.074219 223.042969 266.746094 222.230469 266.335938 221.453125 C 265.925781 220.671875 265.445312 219.941406 264.894531 219.253906 C 264.339844 218.570312 263.726562 217.945312 263.050781 217.382812 C 262.375 216.820312 261.652344 216.328125 260.878906 215.90625 C 260.105469 215.484375 259.296875 215.144531 258.457031 214.882812 C 257.617188 214.621094 256.761719 214.441406 255.886719 214.347656 C 255.011719 214.257812 254.136719 214.25 253.257812 214.328125 C 252.382812 214.410156 251.523438 214.574219 250.679688 214.824219 C 249.832031 215.074219 249.023438 215.402344 248.242188 215.8125 C 247.464844 216.21875 246.734375 216.703125 246.046875 217.253906 C 245.363281 217.808594 244.742188 218.421875 244.175781 219.097656 L 200.894531 271.039062 L 200.894531 13.394531 C 200.894531 12.511719 200.808594 11.640625 200.636719 10.78125 C 200.464844 9.917969 200.210938 9.082031 199.875 8.269531 C 199.535156 7.457031 199.125 6.683594 198.636719 5.953125 C 198.148438 5.222656 197.59375 4.542969 196.96875 3.921875 C 196.347656 3.300781 195.671875 2.746094 194.941406 2.257812 C 194.210938 1.769531 193.4375 1.355469 192.625 1.019531 C 191.8125 0.683594 190.976562 0.429688 190.113281 0.257812 C 189.25 0.0859375 188.378906 0 187.5 0 C 186.621094 0 185.75 0.0859375 184.886719 0.257812 C 184.023438 0.429688 183.1875 0.683594 182.375 1.019531 C 181.5625 1.355469 180.789062 1.769531 180.058594 2.257812 C 179.328125 2.746094 178.652344 3.300781 178.03125 3.921875 C 177.40625 4.542969 176.851562 5.222656 176.363281 5.953125 C 175.875 6.683594 175.464844 7.457031 175.125 8.269531 C 174.789062 9.082031 174.535156 9.917969 174.363281 10.78125 C 174.191406 11.640625 174.105469 12.511719 174.105469 13.394531 L 174.105469 271.039062 L 130.824219 219.097656 C 130.261719 218.421875 129.636719 217.808594 128.953125 217.253906 C 128.269531 216.699219 127.535156 216.21875 126.757812 215.808594 C 125.976562 215.398438 125.167969 215.070312 124.320312 214.820312 C 123.476562 214.570312 122.617188 214.40625 121.742188 214.328125 C 120.863281 214.246094 119.988281 214.253906 119.113281 214.347656 C 118.238281 214.4375 117.378906 214.617188 116.539062 214.878906 C 115.699219 215.140625 114.890625 215.480469 114.121094 215.902344 C 113.347656 216.324219 112.621094 216.816406 111.945312 217.378906 C 111.269531 217.941406 110.65625 218.566406 110.101562 219.253906 C 109.550781 219.9375 109.070312 220.667969 108.660156 221.449219 C 108.253906 222.230469 107.921875 223.039062 107.675781 223.886719 C 107.425781 224.730469 107.261719 225.589844 107.183594 226.464844 C 107.105469 227.34375 107.113281 228.21875 107.207031 229.09375 C 107.300781 229.96875 107.480469 230.828125 107.742188 231.667969 C 108.003906 232.507812 108.347656 233.3125 108.769531 234.085938 C 109.191406 234.859375 109.683594 235.582031 110.25 236.257812 Z M 177.214844 316.613281 " fill-opacity="1" fill-rule="nonzero"/><path fill="#ffffff" d="M 361.605469 241.070312 C 360.726562 241.070312 359.855469 241.15625 358.996094 241.328125 C 358.132812 241.5 357.292969 241.753906 356.480469 242.089844 C 355.667969 242.425781 354.898438 242.839844 354.167969 243.328125 C 353.433594 243.816406 352.757812 244.371094 352.136719 244.992188 C 351.515625 245.617188 350.960938 246.292969 350.472656 247.023438 C 349.984375 247.753906 349.570312 248.527344 349.234375 249.339844 C 348.898438 250.152344 348.644531 250.988281 348.472656 251.851562 C 348.300781 252.714844 348.214844 253.585938 348.214844 254.464844 L 348.214844 334.820312 C 348.214844 335.699219 348.128906 336.570312 347.953125 337.433594 C 347.78125 338.296875 347.527344 339.132812 347.191406 339.945312 C 346.855469 340.757812 346.441406 341.527344 345.953125 342.257812 C 345.464844 342.988281 344.910156 343.667969 344.289062 344.289062 C 343.667969 344.910156 342.988281 345.464844 342.257812 345.953125 C 341.527344 346.441406 340.757812 346.855469 339.945312 347.191406 C 339.132812 347.527344 338.296875 347.78125 337.433594 347.953125 C 336.570312 348.128906 335.699219 348.214844 334.820312 348.214844 L 40.179688 348.214844 C 39.300781 348.214844 38.429688 348.128906 37.566406 347.953125 C 36.703125 347.78125 35.867188 347.527344 35.054688 347.191406 C 34.242188 346.855469 33.472656 346.441406 32.742188 345.953125 C 32.011719 345.464844 31.332031 344.910156 30.710938 344.289062 C 30.089844 343.667969 29.535156 342.988281 29.046875 342.257812 C 28.558594 341.527344 28.144531 340.757812 27.808594 339.945312 C 27.472656 339.132812 27.21875 338.296875 27.046875 337.433594 C 26.871094 336.570312 26.785156 335.699219 26.785156 334.820312 L 26.785156 254.464844 C 26.785156 253.585938 26.699219 252.714844 26.527344 251.851562 C 26.355469 250.988281 26.101562 250.152344 25.765625 249.339844 C 25.429688 248.527344 25.015625 247.753906 24.527344 247.023438 C 24.039062 246.292969 23.484375 245.617188 22.863281 244.992188 C 22.242188 244.371094 21.566406 243.816406 20.832031 243.328125 C 20.101562 242.839844 19.332031 242.425781 18.519531 242.089844 C 17.707031 241.753906 16.867188 241.5 16.003906 241.328125 C 15.144531 241.15625 14.273438 241.070312 13.394531 241.070312 C 12.511719 241.070312 11.640625 241.15625 10.78125 241.328125 C 9.917969 241.5 9.082031 241.753906 8.269531 242.089844 C 7.457031 242.425781 6.683594 242.839844 5.953125 243.328125 C 5.222656 243.816406 4.542969 244.371094 3.921875 244.992188 C 3.300781 245.617188 2.746094 246.292969 2.257812 247.023438 C 1.769531 247.753906 1.355469 248.527344 1.019531 249.339844 C 0.683594 250.152344 0.429688 250.988281 0.257812 251.851562 C 0.0859375 252.714844 0 253.585938 0 254.464844 L 0 334.820312 C 0 336.136719 0.0664062 337.449219 0.199219 338.757812 C 0.328125 340.066406 0.523438 341.367188 0.78125 342.65625 C 1.035156 343.945312 1.355469 345.222656 1.738281 346.480469 C 2.121094 347.738281 2.566406 348.976562 3.070312 350.191406 C 3.574219 351.40625 4.136719 352.59375 4.757812 353.753906 C 5.378906 354.914062 6.054688 356.039062 6.785156 357.132812 C 7.515625 358.226562 8.300781 359.28125 9.132812 360.296875 C 9.96875 361.316406 10.851562 362.289062 11.78125 363.21875 C 12.710938 364.148438 13.683594 365.03125 14.703125 365.867188 C 15.71875 366.699219 16.773438 367.484375 17.867188 368.214844 C 18.960938 368.945312 20.085938 369.621094 21.246094 370.242188 C 22.40625 370.863281 23.59375 371.425781 24.808594 371.929688 C 26.023438 372.433594 27.261719 372.878906 28.519531 373.261719 C 29.777344 373.644531 31.054688 373.964844 32.34375 374.21875 C 33.632812 374.476562 34.933594 374.671875 36.242188 374.800781 C 37.550781 374.933594 38.863281 375 40.179688 375 L 334.820312 375 C 336.136719 375 337.449219 374.933594 338.757812 374.800781 C 340.066406 374.671875 341.367188 374.476562 342.65625 374.21875 C 343.945312 373.964844 345.222656 373.644531 346.480469 373.261719 C 347.738281 372.878906 348.976562 372.433594 350.191406 371.929688 C 351.40625 371.425781 352.59375 370.863281 353.753906 370.242188 C 354.914062 369.621094 356.039062 368.945312 357.132812 368.214844 C 358.226562 367.484375 359.28125 366.699219 360.296875 365.867188 C 361.316406 365.03125 362.289062 364.148438 363.21875 363.21875 C 364.148438 362.289062 365.03125 361.316406 365.867188 360.296875 C 366.699219 359.28125 367.484375 358.226562 368.214844 357.132812 C 368.945312 356.039062 369.621094 354.914062 370.242188 353.753906 C 370.863281 352.59375 371.425781 351.40625 371.929688 350.191406 C 372.433594 348.976562 372.878906 347.738281 373.261719 346.480469 C 373.644531 345.222656 373.964844 343.945312 374.21875 342.65625 C 374.476562 341.367188 374.671875 340.066406 374.800781 338.757812 C 374.933594 337.449219 375 336.136719 375 334.820312 L 375 254.464844 C 375 253.585938 374.914062 252.714844 374.742188 251.851562 C 374.570312 250.988281 374.316406 250.152344 373.980469 249.339844 C 373.644531 248.527344 373.230469 247.753906 372.742188 247.023438 C 372.253906 246.292969 371.699219 245.617188 371.078125 244.992188 C 370.457031 244.371094 369.777344 243.816406 369.046875 243.328125 C 368.316406 242.839844 367.542969 242.425781 366.730469 242.089844 C 365.917969 241.753906 365.082031 241.5 364.21875 241.328125 C 363.359375 241.15625 362.488281 241.070312 361.605469 241.070312 Z M 361.605469 241.070312 " fill-opacity="1" fill-rule="nonzero"/><path fill="currentColor"/></svg>