<svg fill="currentColor" xmlns="http://www.w3.org/2000/svg" xmlns:xlink="http://www.w3.org/1999/xlink" width="500" zoomAndPan="magnify" viewBox="0 0 375 374.999991" height="500" preserveAspectRatio="xMidYMid meet" version="1.0"><defs><clipPath id="67f43c12e1"><path d="M 37.5 39 L 375 39 L 375 189 L 37.5 189 Z M 37.5 39 " clip-rule="nonzero"/></clipPath></defs><path fill="#ffffff" d="M 315.398438 338.617188 C 315.398438 342.9375 311.886719 346.382812 307.636719 346.382812 L 253.09375 346.382812 C 248.773438 346.382812 245.332031 342.871094 245.332031 338.617188 L 245.332031 257.753906 C 245.332031 244.859375 234.871094 234.398438 221.976562 234.398438 L 190.792969 234.398438 C 177.898438 234.398438 167.4375 244.859375 167.4375 257.753906 L 167.4375 338.617188 C 167.4375 342.9375 163.925781 346.382812 159.675781 346.382812 L 104.933594 346.382812 C 100.613281 346.382812 97.171875 342.871094 97.171875 338.617188 L 97.171875 182.761719 L 81.578125 182.761719 L 81.578125 338.617188 C 81.578125 351.511719 92.039062 361.972656 104.933594 361.972656 L 159.472656 361.972656 C 172.363281 361.972656 182.828125 351.511719 182.828125 338.617188 L 182.828125 257.753906 C 182.828125 253.433594 186.335938 249.992188 190.589844 249.992188 L 221.773438 249.992188 C 226.09375 249.992188 229.539062 253.5 229.539062 257.753906 L 229.539062 338.617188 C 229.539062 351.511719 240 361.972656 252.890625 361.972656 L 307.433594 361.972656 C 320.324219 361.972656 330.789062 351.511719 330.789062 338.617188 L 330.789062 182.761719 L 315.195312 182.761719 Z M 315.398438 338.617188 " fill-opacity="1" fill-rule="nonzero"/><g clip-path="url(#67f43c12e1)"><path fill="#ffffff" d="M 221.4375 45.195312 C 212.59375 37.636719 199.835938 37.636719 190.996094 45.195312 L 37.5 176.820312 L 47.625 188.632812 L 201.1875 57.007812 C 204.15625 54.511719 208.410156 54.511719 211.3125 57.007812 L 364.875 188.632812 L 375 176.820312 Z M 221.4375 45.195312 " fill-opacity="1" fill-rule="nonzero"/></g><path fill="#ffffff" d="M 161.265625 208.171875 L 130.21875 177.125 C 126.1875 173.09375 126.1875 166.589844 130.21875 162.558594 L 199.476562 93.265625 C 203.507812 89.234375 210.011719 89.234375 214.042969 93.265625 L 245.125 124.3125 C 249.15625 128.347656 249.15625 134.882812 245.125 138.882812 L 175.832031 208.171875 C 171.800781 212.207031 165.300781 212.207031 161.265625 208.171875 Z M 155.945312 109.953125 L 146.90625 118.996094 C 144.402344 121.496094 144.402344 125.566406 146.90625 128.070312 L 148.054688 129.214844 L 166.132812 111.136719 L 164.988281 109.988281 C 162.484375 107.453125 158.414062 107.453125 155.945312 109.953125 Z M 209.210938 190.335938 L 279.441406 260.566406 C 284.097656 265.226562 291.644531 265.226562 296.300781 260.566406 L 297.519531 259.351562 C 302.179688 254.691406 302.179688 247.148438 297.519531 242.488281 L 227.289062 172.257812 Z M 209.210938 190.335938 " fill-opacity="1" fill-rule="nonzero"/></svg>