<svg fill="currentColor" xmlns="http://www.w3.org/2000/svg" xmlns:xlink="http://www.w3.org/1999/xlink" width="500" zoomAndPan="magnify" viewBox="0 0 375 374.999991" height="500" preserveAspectRatio="xMidYMid meet" version="1.0"><defs><clipPath id="c31e8569d4"><path d="M 6 164 L 369.5 164 L 369.5 372.75 L 6 372.75 Z M 6 164 " clip-rule="nonzero"/></clipPath></defs><g clip-path="url(#c31e8569d4)"><path fill="#ffffff" d="M 23.992188 359.347656 L 121.066406 191.199219 C 126.082031 182.515625 135.0625 177.328125 145.085938 177.328125 C 155.113281 177.328125 164.09375 182.515625 169.109375 191.199219 L 266.183594 359.347656 Z M 368.132812 313.652344 L 308.410156 210.214844 C 303.621094 201.921875 295.042969 196.96875 285.46875 196.96875 C 275.898438 196.96875 267.320312 201.921875 262.527344 210.214844 L 228.878906 268.492188 L 180.46875 184.644531 C 173.085938 171.851562 159.863281 164.210938 145.085938 164.210938 C 130.316406 164.210938 117.089844 171.851562 109.707031 184.644531 L 6.949219 362.628906 C 5.777344 364.65625 5.777344 367.15625 6.949219 369.1875 C 8.117188 371.214844 10.285156 372.464844 12.628906 372.464844 L 277.546875 372.464844 C 279.890625 372.464844 282.058594 371.214844 283.230469 369.1875 C 284.398438 367.15625 284.398438 364.65625 283.230469 362.628906 L 260.628906 323.488281 L 362.449219 323.488281 C 364.792969 323.488281 366.960938 322.242188 368.132812 320.210938 C 369.304688 318.179688 369.304688 315.683594 368.132812 313.652344 " fill-opacity="1" fill-rule="nonzero"/></g><path fill="#ffffff" d="M 85.683594 40.816406 C 105.121094 40.816406 120.933594 56.660156 120.933594 76.140625 C 120.933594 95.582031 105.121094 111.398438 85.683594 111.398438 C 66.214844 111.398438 50.375 95.582031 50.375 76.140625 C 50.375 56.660156 66.214844 40.816406 85.683594 40.816406 Z M 85.683594 121.238281 C 110.546875 121.238281 130.769531 101.007812 130.769531 76.140625 C 130.769531 51.238281 110.546875 30.980469 85.683594 30.980469 C 60.789062 30.980469 40.539062 51.238281 40.539062 76.140625 C 40.539062 101.007812 60.789062 121.238281 85.683594 121.238281 " fill-opacity="1" fill-rule="nonzero"/><path fill="#ffffff" d="M 85.65625 28.589844 L 85.664062 28.589844 C 85.671875 28.589844 85.671875 28.589844 85.671875 28.589844 L 85.675781 28.589844 C 88.390625 28.589844 90.59375 26.386719 90.59375 23.675781 L 90.59375 14.480469 L 90.609375 5.277344 C 90.613281 3.242188 89.375 1.496094 87.609375 0.746094 C 87.113281 0.53125 86.570312 0.421875 86 0.386719 C 85.898438 0.378906 85.800781 0.355469 85.695312 0.355469 L 85.6875 0.355469 C 85.683594 0.355469 85.683594 0.355469 85.683594 0.355469 C 85.683594 0.355469 85.683594 0.355469 85.679688 0.355469 C 82.960938 0.355469 80.757812 2.558594 80.757812 5.273438 L 80.757812 11.34375 L 80.75 23.667969 C 80.746094 25.027344 81.289062 26.257812 82.183594 27.148438 C 83.070312 28.039062 84.300781 28.589844 85.65625 28.589844 " fill-opacity="1" fill-rule="nonzero"/><path fill="#ffffff" d="M 122.738281 43.957031 C 123.992188 43.957031 125.25 43.476562 126.210938 42.519531 L 139.238281 29.535156 C 141.164062 27.613281 141.164062 24.5 139.25 22.578125 C 137.335938 20.648438 134.222656 20.648438 132.292969 22.5625 L 119.269531 35.554688 C 117.339844 37.476562 117.339844 40.585938 119.253906 42.507812 C 120.214844 43.476562 121.480469 43.957031 122.738281 43.957031 " fill-opacity="1" fill-rule="nonzero"/><path fill="#ffffff" d="M 138.089844 71.195312 C 135.375 71.195312 133.179688 73.390625 133.171875 76.105469 C 133.167969 78.820312 135.371094 81.027344 138.082031 81.03125 L 156.476562 81.0625 L 156.484375 81.0625 C 159.199219 81.0625 161.398438 78.867188 161.40625 76.148438 C 161.410156 73.4375 159.207031 71.234375 156.492188 71.226562 L 138.097656 71.195312 L 138.089844 71.195312 " fill-opacity="1" fill-rule="nonzero"/><path fill="#ffffff" d="M 119.253906 109.710938 C 117.328125 111.632812 117.328125 114.746094 119.242188 116.664062 L 132.230469 129.691406 C 133.191406 130.660156 134.453125 131.140625 135.71875 131.140625 C 136.96875 131.140625 138.226562 130.660156 139.1875 129.707031 C 141.113281 127.785156 141.113281 124.667969 139.199219 122.75 L 126.210938 109.722656 C 124.289062 107.796875 121.175781 107.796875 119.253906 109.710938 " fill-opacity="1" fill-rule="nonzero"/><path fill="#ffffff" d="M 85.648438 123.628906 C 82.929688 123.628906 80.734375 125.824219 80.726562 128.539062 L 80.703125 146.929688 C 80.695312 149.648438 82.898438 151.851562 85.613281 151.859375 L 85.621094 151.859375 C 88.335938 151.859375 90.53125 149.664062 90.539062 146.945312 L 90.5625 128.550781 C 90.570312 125.835938 88.367188 123.632812 85.652344 123.628906 L 85.648438 123.628906 " fill-opacity="1" fill-rule="nonzero"/><path fill="#ffffff" d="M 45.101562 109.699219 L 32.078125 122.6875 C 30.148438 124.605469 30.148438 127.71875 32.066406 129.644531 C 33.027344 130.609375 34.289062 131.089844 35.546875 131.089844 C 36.808594 131.089844 38.066406 130.609375 39.019531 129.652344 L 52.042969 116.664062 C 53.96875 114.746094 53.96875 111.632812 52.054688 109.710938 C 50.140625 107.78125 47.027344 107.78125 45.101562 109.699219 " fill-opacity="1" fill-rule="nonzero"/><path fill="#ffffff" d="M 14.820312 80.992188 L 33.210938 81.019531 L 33.21875 81.019531 C 35.933594 81.019531 38.128906 78.820312 38.136719 76.105469 C 38.144531 73.390625 35.941406 71.1875 33.222656 71.183594 L 14.828125 71.15625 L 14.824219 71.15625 C 12.109375 71.15625 9.914062 73.351562 9.90625 76.066406 C 9.898438 78.785156 12.101562 80.988281 14.820312 80.992188 " fill-opacity="1" fill-rule="nonzero"/><path fill="#ffffff" d="M 45.101562 42.496094 C 46.058594 43.464844 47.320312 43.941406 48.582031 43.941406 C 49.839844 43.941406 51.089844 43.464844 52.054688 42.507812 C 53.980469 40.585938 53.980469 37.476562 52.066406 35.554688 L 39.082031 22.527344 C 37.164062 20.59375 34.050781 20.605469 32.125 22.515625 C 30.195312 24.4375 30.195312 27.546875 32.109375 29.46875 L 45.101562 42.496094 " fill-opacity="1" fill-rule="nonzero"/><path fill="#ffffff" d="M 222.582031 142.773438 L 191.53125 111.726562 C 187.5 107.691406 187.5 101.191406 191.53125 97.15625 L 260.789062 27.867188 C 264.824219 23.832031 271.324219 23.832031 275.355469 27.867188 L 306.4375 58.914062 C 310.472656 62.945312 310.472656 69.484375 306.4375 73.480469 L 237.148438 142.773438 C 233.113281 146.804688 226.613281 146.804688 222.582031 142.773438 Z M 217.261719 44.554688 L 208.222656 53.59375 C 205.71875 56.097656 205.71875 60.164062 208.222656 62.667969 L 209.367188 63.816406 L 227.449219 45.738281 L 226.300781 44.589844 C 223.796875 42.050781 219.730469 42.050781 217.261719 44.554688 Z M 270.523438 124.9375 L 340.753906 195.167969 C 345.414062 199.824219 352.957031 199.824219 357.617188 195.167969 L 358.832031 193.949219 C 363.492188 189.292969 363.492188 181.746094 358.832031 177.089844 L 288.601562 106.859375 Z M 270.523438 124.9375 " fill-opacity="1" fill-rule="nonzero"/></svg>