<svg fill="currentColor" xmlns="http://www.w3.org/2000/svg" xmlns:xlink="http://www.w3.org/1999/xlink" width="500" zoomAndPan="magnify" viewBox="0 0 375 374.999991" height="500" preserveAspectRatio="xMidYMid meet" version="1.0"><defs><clipPath id="5e9a0aed8a"><path d="M 0 171 L 375 171 L 375 359.203125 L 0 359.203125 Z M 0 171 " clip-rule="nonzero"/></clipPath><clipPath id="c3ecb20624"><path d="M 93 249 L 180 249 L 180 359.203125 L 93 359.203125 Z M 93 249 " clip-rule="nonzero"/></clipPath><clipPath id="52dc58002f"><path d="M 54 171 L 329 171 L 329 359.203125 L 54 359.203125 Z M 54 171 " clip-rule="nonzero"/></clipPath><clipPath id="6d6878d2da"><path d="M 156 296 L 227 296 L 227 359.203125 L 156 359.203125 Z M 156 296 " clip-rule="nonzero"/></clipPath><clipPath id="5ea6c234cd"><path d="M 187 15.703125 L 329 15.703125 L 329 235 L 187 235 Z M 187 15.703125 " clip-rule="nonzero"/></clipPath></defs><g clip-path="url(#5e9a0aed8a)"><path fill="#ffffff" d="M 367.105469 359.296875 L 7.894531 359.296875 C 5.457031 359.296875 3.160156 358.15625 1.695312 356.234375 C 0.226562 354.300781 -0.273438 351.785156 0.367188 349.441406 L 47.21875 177.644531 C 48.140625 174.242188 51.21875 171.882812 54.746094 171.882812 L 226.542969 171.882812 C 230.855469 171.882812 234.355469 175.378906 234.355469 179.691406 C 234.355469 184 230.855469 187.5 226.542969 187.5 L 60.714844 187.5 L 18.125 343.679688 L 356.875 343.679688 L 314.285156 187.5 L 289.015625 187.5 C 284.707031 187.5 281.207031 184 281.207031 179.691406 C 281.207031 175.378906 284.707031 171.882812 289.015625 171.882812 L 320.253906 171.882812 C 323.78125 171.882812 326.859375 174.242188 327.78125 177.644531 L 374.632812 349.441406 C 375.273438 351.785156 374.773438 354.300781 373.304688 356.234375 C 371.839844 358.15625 369.542969 359.296875 367.105469 359.296875 Z M 367.105469 359.296875 " fill-opacity="1" fill-rule="nonzero"/></g><g clip-path="url(#c3ecb20624)"><path fill="#ffffff" d="M 101.601562 359.296875 C 99.960938 359.296875 98.320312 358.78125 96.917969 357.734375 C 93.464844 355.140625 92.761719 350.253906 95.355469 346.800781 L 165.636719 253.09375 C 168.226562 249.628906 173.117188 248.941406 176.566406 251.535156 C 180.019531 254.125 180.722656 259.015625 178.128906 262.464844 L 107.847656 356.171875 C 106.316406 358.21875 103.976562 359.296875 101.601562 359.296875 Z M 101.601562 359.296875 " fill-opacity="1" fill-rule="nonzero"/></g><g clip-path="url(#52dc58002f)"><path fill="#ffffff" d="M 320.253906 359.296875 C 318.769531 359.296875 317.269531 358.875 315.925781 357.984375 L 58.230469 186.1875 C 54.636719 183.796875 53.671875 178.957031 56.058594 175.363281 C 58.449219 171.773438 63.273438 170.804688 66.882812 173.195312 L 324.578125 344.992188 C 328.171875 347.378906 329.140625 352.222656 326.75 355.8125 C 325.25 358.078125 322.765625 359.296875 320.253906 359.296875 Z M 320.253906 359.296875 " fill-opacity="1" fill-rule="nonzero"/></g><path fill="#ffffff" d="M 132.835938 312.441406 C 131.355469 312.441406 129.855469 312.023438 128.511719 311.132812 L 34.804688 248.660156 C 31.210938 246.269531 30.242188 241.429688 32.632812 237.835938 C 35.007812 234.246094 39.847656 233.277344 43.457031 235.664062 L 137.164062 298.136719 C 140.753906 300.527344 141.722656 305.367188 139.335938 308.960938 C 137.835938 311.226562 135.351562 312.441406 132.835938 312.441406 Z M 132.835938 312.441406 " fill-opacity="1" fill-rule="nonzero"/><path fill="#ffffff" d="M 289.015625 289.015625 C 287.4375 289.015625 285.863281 288.546875 284.488281 287.5625 C 280.972656 285.066406 280.160156 280.175781 282.675781 276.679688 L 321.71875 222.015625 C 324.234375 218.515625 329.109375 217.703125 332.605469 220.203125 C 336.121094 222.703125 336.933594 227.589844 334.417969 231.089844 L 295.371094 285.753906 C 293.84375 287.875 291.453125 289.015625 289.015625 289.015625 Z M 289.015625 289.015625 " fill-opacity="1" fill-rule="nonzero"/><path fill="#ffffff" d="M 359.296875 335.871094 C 357.828125 335.871094 356.34375 335.464844 355.03125 334.589844 L 128.574219 186.21875 C 124.964844 183.859375 123.964844 179.019531 126.308594 175.410156 C 128.683594 171.820312 133.523438 170.804688 137.117188 173.148438 L 363.574219 321.515625 C 367.183594 323.875 368.183594 328.71875 365.839844 332.324219 C 364.324219 334.621094 361.84375 335.871094 359.296875 335.871094 Z M 359.296875 335.871094 " fill-opacity="1" fill-rule="nonzero"/><g clip-path="url(#6d6878d2da)"><path fill="#ffffff" d="M 203.117188 359.296875 C 201.757812 359.296875 200.371094 358.9375 199.105469 358.1875 L 160.058594 334.761719 C 158.230469 333.667969 156.921875 331.855469 156.46875 329.777344 C 156 327.6875 156.40625 325.515625 157.589844 323.734375 L 173.210938 300.308594 C 175.503906 296.839844 180.113281 295.761719 183.71875 297.949219 L 222.765625 321.375 C 224.59375 322.46875 225.90625 324.28125 226.355469 326.359375 C 226.824219 328.453125 226.417969 330.621094 225.234375 332.402344 L 209.613281 355.828125 C 208.117188 358.0625 205.648438 359.296875 203.117188 359.296875 Z M 175.113281 325.578125 L 200.757812 340.960938 L 207.695312 330.542969 L 182.050781 315.160156 Z M 175.113281 325.578125 " fill-opacity="1" fill-rule="nonzero"/></g><path fill="#ffffff" d="M 257.78125 125.027344 C 236.257812 125.027344 218.734375 107.503906 218.734375 85.984375 C 218.734375 64.460938 236.257812 46.9375 257.78125 46.9375 C 279.300781 46.9375 296.824219 64.460938 296.824219 85.984375 C 296.824219 107.503906 279.300781 125.027344 257.78125 125.027344 Z M 257.78125 62.558594 C 244.863281 62.558594 234.355469 73.066406 234.355469 85.984375 C 234.355469 98.898438 244.863281 109.410156 257.78125 109.410156 C 270.695312 109.410156 281.207031 98.898438 281.207031 85.984375 C 281.207031 73.066406 270.695312 62.558594 257.78125 62.558594 Z M 257.78125 62.558594 " fill-opacity="1" fill-rule="nonzero"/><g clip-path="url(#5ea6c234cd)"><path fill="#ffffff" d="M 257.78125 234.355469 C 255.015625 234.355469 252.453125 232.886719 251.050781 230.511719 C 244.550781 219.46875 187.5 121.578125 187.5 85.984375 C 187.5 47.234375 219.03125 15.703125 257.78125 15.703125 C 296.527344 15.703125 328.0625 47.234375 328.0625 85.984375 C 328.0625 121.578125 271.007812 219.46875 264.511719 230.511719 C 263.105469 232.886719 260.542969 234.355469 257.78125 234.355469 Z M 257.78125 31.320312 C 227.636719 31.320312 203.117188 55.839844 203.117188 85.984375 C 203.117188 109.535156 237.976562 175.972656 257.78125 210.910156 C 277.585938 175.972656 312.441406 109.535156 312.441406 85.984375 C 312.441406 55.839844 287.921875 31.320312 257.78125 31.320312 Z M 257.78125 31.320312 " fill-opacity="1" fill-rule="nonzero"/></g></svg>